<mxfile host="app.diagrams.net" agent="Mozilla/5.0 (Macintosh; Intel Mac OS X 10_15_7) AppleWebKit/537.36 (KHTML, like Gecko) Chrome/131.0.0.0 Safari/537.36" version="25.0.3">
  <diagram id="aDT7UxD8U7M7h0CRzYWx" name="Page-1">
    <mxGraphModel dx="2852" dy="1612" grid="0" gridSize="10" guides="1" tooltips="0" connect="1" arrows="1" fold="1" page="0" pageScale="1" pageWidth="850" pageHeight="1100" background="#09060A" math="0" shadow="0">
      <root>
        <mxCell id="0" />
        <mxCell id="1" parent="0" />
        <mxCell id="77" style="edgeStyle=none;html=1;entryX=0.5;entryY=0;entryDx=0;entryDy=0;labelBackgroundColor=none;strokeColor=#ffffff;fontColor=default;" parent="1" source="4" target="30" edge="1">
          <mxGeometry relative="1" as="geometry" />
        </mxCell>
        <mxCell id="4" value="OrderProcessor" style="swimlane;fontStyle=1;align=center;verticalAlign=top;childLayout=stackLayout;horizontal=1;startSize=26;horizontalStack=0;resizeParent=1;resizeParentMax=0;resizeLast=0;collapsible=1;marginBottom=0;labelBackgroundColor=none;fillColor=#182E3E;strokeColor=#ffffff;fontColor=#FFFFFF;" parent="1" vertex="1">
          <mxGeometry x="170" y="280" width="280" height="180" as="geometry" />
        </mxCell>
        <mxCell id="5" value="- pizza_manager : PizzaManager&#xa;- customized_pizza_order : CustomizedPizzaOrder&#xa;- side_dish_manager : SideDishManager&#xa;- orders : list" style="text;strokeColor=#ffffff;fillColor=none;align=left;verticalAlign=top;spacingLeft=4;spacingRight=4;overflow=hidden;rotatable=0;points=[[0,0.5],[1,0.5]];portConstraint=eastwest;labelBackgroundColor=none;fontColor=#FFFFFF;" parent="4" vertex="1">
          <mxGeometry y="26" width="280" height="64" as="geometry" />
        </mxCell>
        <mxCell id="6" value="" style="line;strokeWidth=1;fillColor=none;align=left;verticalAlign=middle;spacingTop=-1;spacingLeft=3;spacingRight=3;rotatable=0;labelPosition=right;points=[];portConstraint=eastwest;strokeColor=#ffffff;labelBackgroundColor=none;fontColor=#FFFFFF;" parent="4" vertex="1">
          <mxGeometry y="90" width="280" height="8" as="geometry" />
        </mxCell>
        <mxCell id="7" value="+ process_order() : : void&#xa;+ add_standard_pizzas(order: dict) : void&#xa;+ add_customized_pizza(order: dict) : void&#xa;+ add_side_dishes(order: dict) : void&#xa;+ display_order_summary(order: dict) : void" style="text;strokeColor=#ffffff;fillColor=none;align=left;verticalAlign=top;spacingLeft=4;spacingRight=4;overflow=hidden;rotatable=0;points=[[0,0.5],[1,0.5]];portConstraint=eastwest;labelBackgroundColor=none;fontColor=#FFFFFF;" parent="4" vertex="1">
          <mxGeometry y="98" width="280" height="82" as="geometry" />
        </mxCell>
        <mxCell id="10" value="IngredientManager" style="swimlane;fontStyle=1;align=center;verticalAlign=top;childLayout=stackLayout;horizontal=1;startSize=26;horizontalStack=0;resizeParent=1;resizeParentMax=0;resizeLast=0;collapsible=1;marginBottom=0;labelBackgroundColor=none;fillColor=#182E3E;strokeColor=#ffffff;fontColor=#FFFFFF;" parent="1" vertex="1">
          <mxGeometry x="250" y="-285" width="250" height="120" as="geometry" />
        </mxCell>
        <mxCell id="11" value="- inventory : dict" style="text;strokeColor=#ffffff;fillColor=none;align=left;verticalAlign=top;spacingLeft=4;spacingRight=4;overflow=hidden;rotatable=0;points=[[0,0.5],[1,0.5]];portConstraint=eastwest;labelBackgroundColor=none;fontColor=#FFFFFF;" parent="10" vertex="1">
          <mxGeometry y="26" width="250" height="26" as="geometry" />
        </mxCell>
        <mxCell id="12" value="" style="line;strokeWidth=1;fillColor=none;align=left;verticalAlign=middle;spacingTop=-1;spacingLeft=3;spacingRight=3;rotatable=0;labelPosition=right;points=[];portConstraint=eastwest;strokeColor=#ffffff;labelBackgroundColor=none;fontColor=#FFFFFF;" parent="10" vertex="1">
          <mxGeometry y="52" width="250" height="8" as="geometry" />
        </mxCell>
        <mxCell id="13" value="+ load_inventory(file_path: str) : void&#xa;+ update_inventory(ingredients : dict) : void&#xa;+ display_inventory() : void" style="text;strokeColor=#ffffff;fillColor=none;align=left;verticalAlign=top;spacingLeft=4;spacingRight=4;overflow=hidden;rotatable=0;points=[[0,0.5],[1,0.5]];portConstraint=eastwest;labelBackgroundColor=none;fontColor=#FFFFFF;" parent="10" vertex="1">
          <mxGeometry y="60" width="250" height="60" as="geometry" />
        </mxCell>
        <mxCell id="14" value="SideDishManager" style="swimlane;fontStyle=1;align=center;verticalAlign=top;childLayout=stackLayout;horizontal=1;startSize=26;horizontalStack=0;resizeParent=1;resizeParentMax=0;resizeLast=0;collapsible=1;marginBottom=0;labelBackgroundColor=none;fillColor=#182E3E;strokeColor=#ffffff;fontColor=#FFFFFF;" parent="1" vertex="1">
          <mxGeometry x="740" width="200" height="100" as="geometry" />
        </mxCell>
        <mxCell id="15" value="- side_dishes : dict" style="text;strokeColor=#ffffff;fillColor=none;align=left;verticalAlign=top;spacingLeft=4;spacingRight=4;overflow=hidden;rotatable=0;points=[[0,0.5],[1,0.5]];portConstraint=eastwest;labelBackgroundColor=none;fontColor=#FFFFFF;" parent="14" vertex="1">
          <mxGeometry y="26" width="200" height="26" as="geometry" />
        </mxCell>
        <mxCell id="16" value="" style="line;strokeWidth=1;fillColor=none;align=left;verticalAlign=middle;spacingTop=-1;spacingLeft=3;spacingRight=3;rotatable=0;labelPosition=right;points=[];portConstraint=eastwest;strokeColor=#ffffff;labelBackgroundColor=none;fontColor=#FFFFFF;" parent="14" vertex="1">
          <mxGeometry y="52" width="200" height="8" as="geometry" />
        </mxCell>
        <mxCell id="17" value="+ load_menu(file_path: str) : void&#xa;+ display_menu() : voidÂ " style="text;strokeColor=#ffffff;fillColor=none;align=left;verticalAlign=top;spacingLeft=4;spacingRight=4;overflow=hidden;rotatable=0;points=[[0,0.5],[1,0.5]];portConstraint=eastwest;labelBackgroundColor=none;fontColor=#FFFFFF;" parent="14" vertex="1">
          <mxGeometry y="60" width="200" height="40" as="geometry" />
        </mxCell>
        <mxCell id="18" value="PizzaManager" style="swimlane;fontStyle=1;align=center;verticalAlign=top;childLayout=stackLayout;horizontal=1;startSize=26;horizontalStack=0;resizeParent=1;resizeParentMax=0;resizeLast=0;collapsible=1;marginBottom=0;labelBackgroundColor=none;fillColor=#182E3E;strokeColor=#ffffff;fontColor=#FFFFFF;" parent="1" vertex="1">
          <mxGeometry x="-450" y="-320" width="340" height="190" as="geometry" />
        </mxCell>
        <mxCell id="19" value="- recipes: dict&#xa;- ingredient_manager : IngredientManager" style="text;strokeColor=#ffffff;fillColor=none;align=left;verticalAlign=top;spacingLeft=4;spacingRight=4;overflow=hidden;rotatable=0;points=[[0,0.5],[1,0.5]];portConstraint=eastwest;labelBackgroundColor=none;fontColor=#FFFFFF;" parent="18" vertex="1">
          <mxGeometry y="26" width="340" height="44" as="geometry" />
        </mxCell>
        <mxCell id="20" value="" style="line;strokeWidth=1;fillColor=none;align=left;verticalAlign=middle;spacingTop=-1;spacingLeft=3;spacingRight=3;rotatable=0;labelPosition=right;points=[];portConstraint=eastwest;strokeColor=#ffffff;labelBackgroundColor=none;fontColor=#FFFFFF;" parent="18" vertex="1">
          <mxGeometry y="70" width="340" height="8" as="geometry" />
        </mxCell>
        <mxCell id="21" value="+ load_dataset(file_path: str) : void&#xa;+ add_recipe(name: str, category: str, ingredients: list) : void&#xa;+ edit_recipe(name: str, category: str, ingredients: list) : void&#xa;+ delete_recipe(name: str) : void&#xa;+ categorize_recipes() : void&#xa;+ search_recipe(keyword : str) : void&#xa;+ get_menu() : dict" style="text;strokeColor=#ffffff;fillColor=none;align=left;verticalAlign=top;spacingLeft=4;spacingRight=4;overflow=hidden;rotatable=0;points=[[0,0.5],[1,0.5]];portConstraint=eastwest;labelBackgroundColor=none;fontColor=#FFFFFF;" parent="18" vertex="1">
          <mxGeometry y="78" width="340" height="112" as="geometry" />
        </mxCell>
        <mxCell id="22" value="CustomizedPizzaOrder" style="swimlane;fontStyle=1;align=center;verticalAlign=top;childLayout=stackLayout;horizontal=1;startSize=26;horizontalStack=0;resizeParent=1;resizeParentMax=0;resizeLast=0;collapsible=1;marginBottom=0;labelBackgroundColor=none;fillColor=#182E3E;strokeColor=#ffffff;fontColor=#FFFFFF;" parent="1" vertex="1">
          <mxGeometry x="175" width="430" height="190" as="geometry" />
        </mxCell>
        <mxCell id="23" value="- pizza-bases : dict&#xa;- sauces : dict&#xa;- toppings : dict&#xa;- additional-ingredients : dict&#xa;- selected_ingredients : dict" style="text;strokeColor=#ffffff;fillColor=none;align=left;verticalAlign=top;spacingLeft=4;spacingRight=4;overflow=hidden;rotatable=0;points=[[0,0.5],[1,0.5]];portConstraint=eastwest;labelBackgroundColor=none;fontColor=#FFFFFF;" parent="22" vertex="1">
          <mxGeometry y="26" width="430" height="84" as="geometry" />
        </mxCell>
        <mxCell id="24" value="" style="line;strokeWidth=1;fillColor=none;align=left;verticalAlign=middle;spacingTop=-1;spacingLeft=3;spacingRight=3;rotatable=0;labelPosition=right;points=[];portConstraint=eastwest;strokeColor=#ffffff;labelBackgroundColor=none;fontColor=#FFFFFF;" parent="22" vertex="1">
          <mxGeometry y="110" width="430" height="8" as="geometry" />
        </mxCell>
        <mxCell id="25" value="+ load_ingredients(file_path: str) : void&#xa;+ customize_pizza() : void&#xa;+ select_ingredient(category: str, ingredients: dict, allow_multiple: bool) : void&#xa;+ display_order_summary() : void" style="text;strokeColor=#ffffff;fillColor=none;align=left;verticalAlign=top;spacingLeft=4;spacingRight=4;overflow=hidden;rotatable=0;points=[[0,0.5],[1,0.5]];portConstraint=eastwest;labelBackgroundColor=none;fontColor=#FFFFFF;" parent="22" vertex="1">
          <mxGeometry y="118" width="430" height="72" as="geometry" />
        </mxCell>
        <mxCell id="26" value="StandardMenuManager" style="swimlane;fontStyle=1;align=center;verticalAlign=top;childLayout=stackLayout;horizontal=1;startSize=26;horizontalStack=0;resizeParent=1;resizeParentMax=0;resizeLast=0;collapsible=1;marginBottom=0;labelBackgroundColor=none;fillColor=#182E3E;strokeColor=#ffffff;fontColor=#FFFFFF;" parent="1" vertex="1">
          <mxGeometry x="-400" y="80" width="190" height="100" as="geometry" />
        </mxCell>
        <mxCell id="27" value="- standard_menu : dict" style="text;strokeColor=#ffffff;fillColor=none;align=left;verticalAlign=top;spacingLeft=4;spacingRight=4;overflow=hidden;rotatable=0;points=[[0,0.5],[1,0.5]];portConstraint=eastwest;labelBackgroundColor=none;fontColor=#FFFFFF;" parent="26" vertex="1">
          <mxGeometry y="26" width="190" height="26" as="geometry" />
        </mxCell>
        <mxCell id="28" value="" style="line;strokeWidth=1;fillColor=none;align=left;verticalAlign=middle;spacingTop=-1;spacingLeft=3;spacingRight=3;rotatable=0;labelPosition=right;points=[];portConstraint=eastwest;strokeColor=#ffffff;labelBackgroundColor=none;fontColor=#FFFFFF;" parent="26" vertex="1">
          <mxGeometry y="52" width="190" height="8" as="geometry" />
        </mxCell>
        <mxCell id="29" value="+ load_menu(file_path: str) : void&#xa;+ display_menu() : void" style="text;strokeColor=#ffffff;fillColor=none;align=left;verticalAlign=top;spacingLeft=4;spacingRight=4;overflow=hidden;rotatable=0;points=[[0,0.5],[1,0.5]];portConstraint=eastwest;labelBackgroundColor=none;fontColor=#FFFFFF;" parent="26" vertex="1">
          <mxGeometry y="60" width="190" height="40" as="geometry" />
        </mxCell>
        <mxCell id="79" style="edgeStyle=none;html=1;entryX=0.281;entryY=-0.007;entryDx=0;entryDy=0;entryPerimeter=0;labelBackgroundColor=none;strokeColor=#ffffff;fontColor=default;" parent="1" source="30" target="47" edge="1">
          <mxGeometry relative="1" as="geometry" />
        </mxCell>
        <mxCell id="30" value="Pizzas" style="swimlane;fontStyle=0;childLayout=stackLayout;horizontal=1;startSize=26;fillColor=none;horizontalStack=0;resizeParent=1;resizeParentMax=0;resizeLast=0;collapsible=1;marginBottom=0;labelBackgroundColor=none;strokeColor=#ffffff;fontColor=#FFFFFF;" parent="1" vertex="1">
          <mxGeometry x="160" y="550" width="80" height="52" as="geometry" />
        </mxCell>
        <mxCell id="31" value="- type : str" style="text;strokeColor=#ffffff;fillColor=none;align=left;verticalAlign=top;spacingLeft=4;spacingRight=4;overflow=hidden;rotatable=0;points=[[0,0.5],[1,0.5]];portConstraint=eastwest;labelBackgroundColor=none;fontColor=#FFFFFF;" parent="30" vertex="1">
          <mxGeometry y="26" width="80" height="26" as="geometry" />
        </mxCell>
        <mxCell id="34" value="SideDish" style="swimlane;fontStyle=0;childLayout=stackLayout;horizontal=1;startSize=20;fillColor=none;horizontalStack=0;resizeParent=1;resizeParentMax=0;resizeLast=0;collapsible=1;marginBottom=0;labelBackgroundColor=none;strokeColor=#ffffff;fontColor=#FFFFFF;" parent="1" vertex="1">
          <mxGeometry x="340" y="530" width="140" height="130" as="geometry" />
        </mxCell>
        <mxCell id="35" value="- name: str" style="text;strokeColor=#ffffff;fillColor=none;align=left;verticalAlign=top;spacingLeft=4;spacingRight=4;overflow=hidden;rotatable=0;points=[[0,0.5],[1,0.5]];portConstraint=eastwest;labelBackgroundColor=none;fontColor=#FFFFFF;" parent="34" vertex="1">
          <mxGeometry y="20" width="140" height="26" as="geometry" />
        </mxCell>
        <mxCell id="36" value="- description: str" style="text;strokeColor=#ffffff;fillColor=none;align=left;verticalAlign=top;spacingLeft=4;spacingRight=4;overflow=hidden;rotatable=0;points=[[0,0.5],[1,0.5]];portConstraint=eastwest;labelBackgroundColor=none;fontColor=#FFFFFF;" parent="34" vertex="1">
          <mxGeometry y="46" width="140" height="26" as="geometry" />
        </mxCell>
        <mxCell id="37" value="- type: str&#xa;&#xa;- price: float" style="text;strokeColor=#ffffff;fillColor=none;align=left;verticalAlign=top;spacingLeft=4;spacingRight=4;overflow=hidden;rotatable=0;points=[[0,0.5],[1,0.5]];portConstraint=eastwest;labelBackgroundColor=none;fontColor=#FFFFFF;" parent="34" vertex="1">
          <mxGeometry y="72" width="140" height="58" as="geometry" />
        </mxCell>
        <mxCell id="39" value="CustomizedPizza" style="swimlane;fontStyle=0;childLayout=stackLayout;horizontal=1;startSize=26;fillColor=none;horizontalStack=0;resizeParent=1;resizeParentMax=0;resizeLast=0;collapsible=1;marginBottom=0;labelBackgroundColor=none;strokeColor=#ffffff;fontColor=#FFFFFF;" parent="1" vertex="1">
          <mxGeometry x="529" y="461" width="160" height="50" as="geometry" />
        </mxCell>
        <mxCell id="40" value="- contains: List(Ingredient)" style="text;strokeColor=#ffffff;fillColor=none;align=left;verticalAlign=top;spacingLeft=4;spacingRight=4;overflow=hidden;rotatable=0;points=[[0,0.5],[1,0.5]];portConstraint=eastwest;labelBackgroundColor=none;fontColor=#FFFFFF;" parent="39" vertex="1">
          <mxGeometry y="26" width="160" height="24" as="geometry" />
        </mxCell>
        <mxCell id="43" value="Ingredient" style="swimlane;fontStyle=0;childLayout=stackLayout;horizontal=1;startSize=26;fillColor=none;horizontalStack=0;resizeParent=1;resizeParentMax=0;resizeLast=0;collapsible=1;marginBottom=0;labelBackgroundColor=none;strokeColor=#ffffff;fontColor=#FFFFFF;" parent="1" vertex="1">
          <mxGeometry x="809" y="447" width="100" height="78" as="geometry" />
        </mxCell>
        <mxCell id="44" value="- name: str" style="text;strokeColor=#ffffff;fillColor=none;align=left;verticalAlign=top;spacingLeft=4;spacingRight=4;overflow=hidden;rotatable=0;points=[[0,0.5],[1,0.5]];portConstraint=eastwest;labelBackgroundColor=none;fontColor=#FFFFFF;" parent="43" vertex="1">
          <mxGeometry y="26" width="100" height="26" as="geometry" />
        </mxCell>
        <mxCell id="45" value="- price: float" style="text;strokeColor=#ffffff;fillColor=none;align=left;verticalAlign=top;spacingLeft=4;spacingRight=4;overflow=hidden;rotatable=0;points=[[0,0.5],[1,0.5]];portConstraint=eastwest;labelBackgroundColor=none;fontColor=#FFFFFF;" parent="43" vertex="1">
          <mxGeometry y="52" width="100" height="26" as="geometry" />
        </mxCell>
        <mxCell id="47" value="StandardPizza" style="swimlane;fontStyle=0;childLayout=stackLayout;horizontal=1;startSize=26;fillColor=none;horizontalStack=0;resizeParent=1;resizeParentMax=0;resizeLast=0;collapsible=1;marginBottom=0;labelBackgroundColor=none;strokeColor=#ffffff;fontColor=#FFFFFF;" parent="1" vertex="1">
          <mxGeometry x="160" y="638" width="140" height="52" as="geometry" />
        </mxCell>
        <mxCell id="48" value="- has: PizzaRecipe" style="text;strokeColor=#ffffff;fillColor=none;align=left;verticalAlign=top;spacingLeft=4;spacingRight=4;overflow=hidden;rotatable=0;points=[[0,0.5],[1,0.5]];portConstraint=eastwest;labelBackgroundColor=none;fontColor=#FFFFFF;" parent="47" vertex="1">
          <mxGeometry y="26" width="140" height="26" as="geometry" />
        </mxCell>
        <mxCell id="51" value="PizzaRecipe" style="swimlane;fontStyle=0;childLayout=stackLayout;horizontal=1;startSize=26;fillColor=none;horizontalStack=0;resizeParent=1;resizeParentMax=0;resizeLast=0;collapsible=1;marginBottom=0;labelBackgroundColor=none;strokeColor=#ffffff;fontColor=#FFFFFF;" parent="1" vertex="1">
          <mxGeometry x="-33" y="602" width="140" height="130" as="geometry" />
        </mxCell>
        <mxCell id="52" value="- name: str" style="text;strokeColor=#ffffff;fillColor=none;align=left;verticalAlign=top;spacingLeft=4;spacingRight=4;overflow=hidden;rotatable=0;points=[[0,0.5],[1,0.5]];portConstraint=eastwest;labelBackgroundColor=none;fontColor=#FFFFFF;" parent="51" vertex="1">
          <mxGeometry y="26" width="140" height="26" as="geometry" />
        </mxCell>
        <mxCell id="53" value="- category: str" style="text;strokeColor=#ffffff;fillColor=none;align=left;verticalAlign=top;spacingLeft=4;spacingRight=4;overflow=hidden;rotatable=0;points=[[0,0.5],[1,0.5]];portConstraint=eastwest;labelBackgroundColor=none;fontColor=#FFFFFF;" parent="51" vertex="1">
          <mxGeometry y="52" width="140" height="26" as="geometry" />
        </mxCell>
        <mxCell id="54" value="- ingredients: list&#xa;&#xa;- price: float" style="text;strokeColor=#ffffff;fillColor=none;align=left;verticalAlign=top;spacingLeft=4;spacingRight=4;overflow=hidden;rotatable=0;points=[[0,0.5],[1,0.5]];portConstraint=eastwest;labelBackgroundColor=none;fontColor=#FFFFFF;" parent="51" vertex="1">
          <mxGeometry y="78" width="140" height="52" as="geometry" />
        </mxCell>
        <mxCell id="59" value="Use" style="endArrow=open;endSize=12;dashed=1;html=1;exitX=-0.002;exitY=0.218;exitDx=0;exitDy=0;exitPerimeter=0;labelBackgroundColor=none;strokeColor=#ffffff;fontColor=default;" parent="1" source="13" edge="1">
          <mxGeometry width="160" relative="1" as="geometry">
            <mxPoint x="230" y="-60" as="sourcePoint" />
            <mxPoint x="-110" y="-207" as="targetPoint" />
          </mxGeometry>
        </mxCell>
        <mxCell id="60" value="Use" style="endArrow=open;endSize=12;dashed=1;html=1;exitX=0.558;exitY=1.079;exitDx=0;exitDy=0;exitPerimeter=0;labelBackgroundColor=none;strokeColor=#ffffff;fontColor=default;" parent="1" source="13" target="22" edge="1">
          <mxGeometry width="160" relative="1" as="geometry">
            <mxPoint x="240" y="-50" as="sourcePoint" />
            <mxPoint x="315" y="-10" as="targetPoint" />
          </mxGeometry>
        </mxCell>
        <mxCell id="61" value="" style="endArrow=open;endFill=1;endSize=12;html=1;exitX=1;exitY=0.75;exitDx=0;exitDy=0;exitPerimeter=0;entryX=1.001;entryY=0.313;entryDx=0;entryDy=0;entryPerimeter=0;labelBackgroundColor=none;strokeColor=#ffffff;fontColor=default;" parent="1" source="12" target="7" edge="1">
          <mxGeometry width="160" relative="1" as="geometry">
            <mxPoint x="230" y="-60" as="sourcePoint" />
            <mxPoint x="700" y="460" as="targetPoint" />
            <Array as="points">
              <mxPoint x="680" y="-228" />
              <mxPoint x="680" y="403" />
            </Array>
          </mxGeometry>
        </mxCell>
        <mxCell id="63" value="" style="endArrow=open;endFill=1;endSize=12;html=1;labelBackgroundColor=none;strokeColor=#ffffff;fontColor=default;" parent="1" target="26" edge="1">
          <mxGeometry width="160" relative="1" as="geometry">
            <mxPoint x="-305" y="-130" as="sourcePoint" />
            <mxPoint x="260" y="10" as="targetPoint" />
          </mxGeometry>
        </mxCell>
        <mxCell id="64" value="" style="endArrow=open;endFill=1;endSize=12;html=1;entryX=0.001;entryY=0.866;entryDx=0;entryDy=0;entryPerimeter=0;labelBackgroundColor=none;strokeColor=#ffffff;fontColor=default;" parent="1" target="5" edge="1">
          <mxGeometry width="160" relative="1" as="geometry">
            <mxPoint x="-160" y="-130" as="sourcePoint" />
            <mxPoint x="-295.558659217877" y="90" as="targetPoint" />
            <Array as="points">
              <mxPoint x="-160" y="360" />
            </Array>
          </mxGeometry>
        </mxCell>
        <mxCell id="67" value="Use" style="endArrow=open;endSize=12;dashed=1;html=1;entryX=0.002;entryY=0.223;entryDx=0;entryDy=0;entryPerimeter=0;labelBackgroundColor=none;strokeColor=#ffffff;fontColor=default;" parent="1" source="23" target="17" edge="1">
          <mxGeometry width="160" relative="1" as="geometry">
            <mxPoint x="580" y="60" as="sourcePoint" />
            <mxPoint x="740" y="60" as="targetPoint" />
          </mxGeometry>
        </mxCell>
        <mxCell id="68" value="" style="endArrow=open;endFill=1;endSize=12;html=1;exitX=0.439;exitY=1.008;exitDx=0;exitDy=0;exitPerimeter=0;entryX=0.692;entryY=0;entryDx=0;entryDy=0;entryPerimeter=0;labelBackgroundColor=none;strokeColor=#ffffff;fontColor=default;" parent="1" source="25" target="4" edge="1">
          <mxGeometry width="160" relative="1" as="geometry">
            <mxPoint x="320" y="230" as="sourcePoint" />
            <mxPoint x="480" y="230" as="targetPoint" />
          </mxGeometry>
        </mxCell>
        <mxCell id="69" value="Use" style="endArrow=open;endSize=12;dashed=1;html=1;labelBackgroundColor=none;strokeColor=#ffffff;fontColor=default;" parent="1" edge="1">
          <mxGeometry width="160" relative="1" as="geometry">
            <mxPoint x="170" y="400" as="sourcePoint" />
            <mxPoint x="-110" y="-177" as="targetPoint" />
            <Array as="points">
              <mxPoint x="-30" y="400" />
              <mxPoint x="-30" y="-176" />
            </Array>
          </mxGeometry>
        </mxCell>
        <mxCell id="72" value="Use" style="endArrow=open;endSize=12;dashed=1;html=1;entryX=0.522;entryY=0.996;entryDx=0;entryDy=0;entryPerimeter=0;exitX=0.818;exitY=-0.004;exitDx=0;exitDy=0;exitPerimeter=0;labelBackgroundColor=none;strokeColor=#ffffff;fontColor=default;" parent="1" source="4" target="25" edge="1">
          <mxGeometry width="160" relative="1" as="geometry">
            <mxPoint x="400" y="270" as="sourcePoint" />
            <mxPoint x="570" y="270" as="targetPoint" />
          </mxGeometry>
        </mxCell>
        <mxCell id="74" value="Use" style="endArrow=open;endSize=12;dashed=1;html=1;entryX=0.338;entryY=1.156;entryDx=0;entryDy=0;entryPerimeter=0;labelBackgroundColor=none;strokeColor=#ffffff;fontColor=default;" parent="1" target="17" edge="1">
          <mxGeometry width="160" relative="1" as="geometry">
            <mxPoint x="450" y="360" as="sourcePoint" />
            <mxPoint x="610" y="360" as="targetPoint" />
            <Array as="points">
              <mxPoint x="810" y="360" />
            </Array>
          </mxGeometry>
        </mxCell>
        <mxCell id="75" value="" style="endArrow=open;endFill=1;endSize=12;html=1;exitX=0;exitY=0.5;exitDx=0;exitDy=0;entryX=1.001;entryY=0.16;entryDx=0;entryDy=0;entryPerimeter=0;labelBackgroundColor=none;strokeColor=#ffffff;fontColor=default;" parent="1" source="15" target="23" edge="1">
          <mxGeometry width="160" relative="1" as="geometry">
            <mxPoint x="720" y="180" as="sourcePoint" />
            <mxPoint x="610" y="40" as="targetPoint" />
          </mxGeometry>
        </mxCell>
        <mxCell id="76" value="" style="endArrow=open;endFill=1;endSize=12;html=1;exitX=0.629;exitY=0.997;exitDx=0;exitDy=0;exitPerimeter=0;entryX=1;entryY=0.5;entryDx=0;entryDy=0;labelBackgroundColor=none;strokeColor=#ffffff;fontColor=default;" parent="1" source="17" target="5" edge="1">
          <mxGeometry width="160" relative="1" as="geometry">
            <mxPoint x="920" y="150" as="sourcePoint" />
            <mxPoint x="1080" y="150" as="targetPoint" />
            <Array as="points">
              <mxPoint x="865" y="338" />
            </Array>
          </mxGeometry>
        </mxCell>
        <mxCell id="78" style="edgeStyle=none;html=1;entryX=0.5;entryY=0;entryDx=0;entryDy=0;exitX=0.554;exitY=1.009;exitDx=0;exitDy=0;exitPerimeter=0;labelBackgroundColor=none;strokeColor=#ffffff;fontColor=default;" parent="1" source="7" target="34" edge="1">
          <mxGeometry relative="1" as="geometry">
            <mxPoint x="265.0000000000002" y="470.0000000000002" as="sourcePoint" />
            <mxPoint x="210.00000000000023" y="560.0000000000002" as="targetPoint" />
          </mxGeometry>
        </mxCell>
        <mxCell id="82" value="" style="endArrow=diamondThin;endFill=1;endSize=24;html=1;entryX=1;entryY=0.5;entryDx=0;entryDy=0;labelBackgroundColor=none;strokeColor=#ffffff;fontColor=default;" parent="1" target="53" edge="1">
          <mxGeometry width="160" relative="1" as="geometry">
            <mxPoint x="159" y="667" as="sourcePoint" />
            <mxPoint x="103" y="669" as="targetPoint" />
          </mxGeometry>
        </mxCell>
        <mxCell id="83" value="" style="endArrow=diamondThin;endFill=1;endSize=24;html=1;exitX=1.003;exitY=0.119;exitDx=0;exitDy=0;exitPerimeter=0;entryX=0.003;entryY=0.653;entryDx=0;entryDy=0;entryPerimeter=0;labelBackgroundColor=none;strokeColor=#ffffff;fontColor=default;" parent="1" source="40" target="44" edge="1">
          <mxGeometry width="160" relative="1" as="geometry">
            <mxPoint x="389" y="461" as="sourcePoint" />
            <mxPoint x="739" y="521" as="targetPoint" />
          </mxGeometry>
        </mxCell>
      </root>
    </mxGraphModel>
  </diagram>
</mxfile>
